# xmcd
#
# Track frame offsets: 
#        150
#        11254
#        23263
#        35663
#        47042
#        61408
#        84653
#        91594
#        103156
#        113992
#        130585
#        159029
#        171501
#        189879
#
# Disc length: 2596 seconds
#
# Revision: 0
# Processed by: cddbd v1.5.2PL0 Copyright (c) Steve Scherf et al.
# Submitted via: ExactAudioCopy v1.0b3
#
DISCID=9d0a220e
DTITLE=野坂昭如 - 野坂昭如ライブ総集編 VOL. 2（1975年 - 1976年）
DYEAR=2013
DGENRE=Blues
TTITLE0=面白半分 春の音楽祭より - 男坂・女坂
TTITLE1=面白半分 春の音楽祭より - おんじょろ節
TTITLE2=面白半分 春の音楽祭より - 夏
TTITLE3=面白半分 春の音楽祭より - 冬
TTITLE4=面白半分 春の音楽祭より - かもめの3 4（シーサン）
TTITLE5=面白半分 春の音楽祭より - 黒の舟唄
TTITLE6=ハロー・ダンディ・ミスター野坂昭如オン・ステージより - ソクラテスの唄（サントリー・ゴールド900　テーマ・ソング）
TTITLE7=ハロー・ダンディ・ミスター野坂昭如オン・ステージより - ハロー・ダンディ＜ハロー・ドーリー＞
TTITLE8=ハロー・ダンディ・ミスター野坂昭如オン・ステージより - バージン・ブルース
TTITLE9=ハロー・ダンディ・ミスター野坂昭如オン・ステージより - 弁説
TTITLE10=ハロー・ダンディ・ミスター野坂昭如オン・ステージより - 花ざかりの森
TTITLE11=ハロー・ダンディ・ミスター野坂昭如オン・ステージより - 出来そこないのロック
TTITLE12=ハロー・ダンディ・ミスター野坂昭如オン・ステージより - チューインガム・ブルース
TTITLE13=ハロー・ダンディ・ミスター野坂昭如オン・ステージより - ハロー・ダンディ＜ハロー・ドーリー＞
EXTD=
EXTT0=
EXTT1=
EXTT2=
EXTT3=
EXTT4=
EXTT5=
EXTT6=
EXTT7=
EXTT8=
EXTT9=
EXTT10=
EXTT11=
EXTT12=
EXTT13=
PLAYORDER=
